<svg xmlns="http://www.w3.org/2000/svg" xmlns:xlink="http://www.w3.org/1999/xlink" viewBox="0 0 203.64 66.57"><defs><style>.cls-1{fill:url(#Unbenannter_Verlauf_23);}.cls-2{fill:url(#Unbenannter_Verlauf_23-2);}.cls-3{fill:url(#Unbenannter_Verlauf_23-3);}.cls-4{fill:url(#Unbenannter_Verlauf_23-4);}.cls-5{fill:url(#Unbenannter_Verlauf_23-5);}.cls-6{fill:url(#Unbenannter_Verlauf_23-6);}.cls-7{fill:url(#Unbenannter_Verlauf_23-7);}.cls-8{fill:url(#Unbenannter_Verlauf_23-8);}.cls-9{fill:url(#Unbenannter_Verlauf_23-9);}.cls-10{fill:url(#Unbenannter_Verlauf_23-10);}.cls-11{fill:url(#Unbenannter_Verlauf_23-11);}.cls-12{fill:url(#Unbenannter_Verlauf_23-12);}.cls-13{fill:url(#Unbenannter_Verlauf_23-13);}.cls-14{fill:url(#Unbenannter_Verlauf_23-14);}.cls-15{fill:url(#Unbenannter_Verlauf_23-15);}.cls-16{fill:url(#Unbenannter_Verlauf_23-16);}</style><linearGradient id="Unbenannter_Verlauf_23" x1="11.1" y1="60.11" x2="78.15" y2="24.78" gradientUnits="userSpaceOnUse"><stop offset="0" stop-color="#3dbbcd"/><stop offset="0.52" stop-color="#9663a1"/><stop offset="1" stop-color="#e71c84"/></linearGradient><linearGradient id="Unbenannter_Verlauf_23-2" x1="15.31" y1="68.11" x2="82.36" y2="32.77" xlink:href="#Unbenannter_Verlauf_23"/><linearGradient id="Unbenannter_Verlauf_23-3" x1="18.21" y1="73.61" x2="85.26" y2="38.27" xlink:href="#Unbenannter_Verlauf_23"/><linearGradient id="Unbenannter_Verlauf_23-4" x1="22.56" y1="81.86" x2="89.61" y2="46.52" xlink:href="#Unbenannter_Verlauf_23"/><linearGradient id="Unbenannter_Verlauf_23-5" x1="27.03" y1="90.33" x2="94.07" y2="54.99" xlink:href="#Unbenannter_Verlauf_23"/><linearGradient id="Unbenannter_Verlauf_23-6" x1="31.26" y1="98.37" x2="98.31" y2="63.03" xlink:href="#Unbenannter_Verlauf_23"/><linearGradient id="Unbenannter_Verlauf_23-7" x1="35.12" y1="105.7" x2="102.17" y2="70.36" xlink:href="#Unbenannter_Verlauf_23"/><linearGradient id="Unbenannter_Verlauf_23-8" x1="20.87" y1="78.65" x2="87.92" y2="43.31" xlink:href="#Unbenannter_Verlauf_23"/><linearGradient id="Unbenannter_Verlauf_23-9" x1="25.77" y1="87.95" x2="92.82" y2="52.61" xlink:href="#Unbenannter_Verlauf_23"/><linearGradient id="Unbenannter_Verlauf_23-10" x1="29.18" y1="94.42" x2="96.23" y2="59.08" xlink:href="#Unbenannter_Verlauf_23"/><linearGradient id="Unbenannter_Verlauf_23-11" x1="32.96" y1="101.59" x2="100" y2="66.25" xlink:href="#Unbenannter_Verlauf_23"/><linearGradient id="Unbenannter_Verlauf_23-12" x1="38" y1="111.16" x2="105.05" y2="75.82" xlink:href="#Unbenannter_Verlauf_23"/><linearGradient id="Unbenannter_Verlauf_23-13" x1="41.77" y1="118.3" x2="108.82" y2="82.96" xlink:href="#Unbenannter_Verlauf_23"/><linearGradient id="Unbenannter_Verlauf_23-14" x1="45.18" y1="124.78" x2="112.23" y2="89.44" xlink:href="#Unbenannter_Verlauf_23"/><linearGradient id="Unbenannter_Verlauf_23-15" x1="4.89" y1="48.34" x2="71.94" y2="13" xlink:href="#Unbenannter_Verlauf_23"/><linearGradient id="Unbenannter_Verlauf_23-16" x1="4.9" y1="48.35" x2="71.94" y2="13.01" xlink:href="#Unbenannter_Verlauf_23"/></defs><title>logo_hgj</title><g id="Ebene_2" data-name="Ebene 2"><g id="Ebene_1-2" data-name="Ebene 1"><path class="cls-1" d="M74.93,11.44h5V19.5h8.07V11.44h5v20.5h-5v-8.1H80v8.1h-5ZM78.71,31V23.84H76.2V31ZM91.8,31V23.84H89.32V31Z"/><path class="cls-2" d="M96.37,11.44H110v4.44h-8.59v3.69h7.93V24h-7.93v3.69h9v4.3h-14Zm3.78,17.15V14.92L97.64,12.4V31Z"/><path class="cls-3" d="M116.47,15.88h-4.6V11.44h14.35v4.44h-4.67V31.94h-5.08ZM120.32,31V15.88h-2.65V31Z"/><path class="cls-4" d="M127.64,31.46l9.41-15.41H128.8V11.44H145v.48l-9.75,15.37h9.41v4.65h-17ZM137.7,15.09l1.75-2.66H130v2.66ZM143.47,31v-2.7h-9L132.79,31Z"/><path class="cls-5" d="M148.08,11.44h5.32l8,12.16V11.44h5v20.5h-5.25l-8-12.2v12.2h-5ZM151.86,31V18.48l-2.51-3.93V31Zm13.29-2.29V12.4h-2.47V24.87Z"/><path class="cls-6" d="M169.73,11.44h13.63v4.44h-8.58v3.69h7.93V24h-7.93v3.69h9v4.3h-14Zm3.77,17.15V14.92L171,12.4V31Z"/><path class="cls-7" d="M186.18,11.44h8.63c4.43,0,7.31,2.66,7.31,6.53,0,3.58-1.82,5.6-4.87,6.35l5.56,7.62h-6.32l-5.26-7.65v7.65h-5ZM190,31V12.4h-2.5V31Zm5.33-10.67A2.16,2.16,0,0,0,197.18,18a2.18,2.18,0,0,0-2-2.26h-3.92v4.61Z"/><path class="cls-8" d="M83.16,36.37a9.8,9.8,0,0,1,7.4,3.08l-3,2.75a6.55,6.55,0,0,0-4.39-1.76A5.06,5.06,0,0,0,78,45.75a5.08,5.08,0,0,0,5.28,5.3c3.09,0,4.6-1.7,4.71-3.39h-5V43.93h9.73V45.6c0,5.19-3.07,9.53-9.49,9.53a9.38,9.38,0,1,1,0-18.76Zm-6,7.56a6,6,0,0,1,6-4.31A7.79,7.79,0,0,1,87.49,41l1.71-1.64a8.42,8.42,0,0,0-6-2.2,8.25,8.25,0,0,0-8.31,6.74Z"/><path class="cls-9" d="M101.67,36.37h.76l8.67,18.17h-4.66l-.88-1.81h-7l-.86,1.81H93.07ZM97,53.72l1.92-4.07H96.48l-1.94,4.07Zm7.14-4.07-2-4.46H102l-2.06,4.46Zm3.06,4.07h2.45l-1.95-4.07h-2.39Z"/><path class="cls-10" d="M113,37h4l4.5,9.49L126.07,37h4V54.54h-4.3V46.72l-3.86,8.41h-.71l-3.86-8.47v7.88H113Zm3.24,16.76V44.11l-2.15-4.81V53.72Zm9.52-9.29V40l-3.6,7.66,1,2.34Z"/><path class="cls-11" d="M132.88,37h11.7v3.81h-7.37v3.16H144v3.75h-6.81v3.17h7.69v3.69h-12Zm3.24,14.71V40L134,37.78V53.72Z"/><path class="cls-12" d="M157.28,49.09c.21,1.26.71,2,2.09,2s2.3-.58,2.3-2.72V37H166V49.18c0,3.69-2.92,6-6.37,6-3.68,0-6.48-2.2-6.48-5.89Zm7.58-5.16V37.78h-2.1v6.15Z"/><path class="cls-13" d="M175.26,36.37H176l8.66,18.17H180l-.88-1.81h-7l-.86,1.81h-4.65Zm-4.71,17.35,1.91-4.07h-2.39l-1.94,4.07Zm7.13-4.07-2-4.46h-.06l-2.06,4.46Zm3.06,4.07h2.45l-1.95-4.07h-2.39Z"/><path class="cls-14" d="M186.58,37h4l4.5,9.49L199.66,37h4V54.54h-4.3V46.72l-3.86,8.41h-.71l-3.86-8.47v7.88h-4.33Zm3.24,16.76V44.11l-2.15-4.81V53.72Zm9.52-9.29V40l-3.6,7.66,1,2.34Z"/><path class="cls-15" d="M33.46,0A33.29,33.29,0,1,0,66.93,33.28,33.41,33.41,0,0,0,33.46,0ZM26.78,64.94C9.08,60.85-2.08,43.51,1.9,26.28a31.66,31.66,0,0,1,14.56-20,33.13,33.13,0,0,1,24.85-4L41,3.69A31.64,31.64,0,0,0,17.22,7.47,30.2,30.2,0,0,0,3.32,26.61c-3.8,16.44,6.87,33,23.79,36.91Zm6.68-2.37A29.29,29.29,0,1,1,62.93,33.28,29.41,29.41,0,0,1,33.46,62.57Z"/><path class="cls-16" d="M50.07,19.8,47.27,17,33.46,30.49,19.67,17,16.85,19.8,30.61,33.29,16.86,46.76l2.8,2.86,13.8-13.53L47.27,49.62l2.8-2.86L36.32,33.29ZM34.21,31.22,47.28,18.41l1.42,1.45-13,12.79-.58-.57Z"/></g></g></svg>